<?xml version="1.0" encoding="utf-8"?>
<!-- Generator: Adobe Illustrator 25.2.1, SVG Export Plug-In . SVG Version: 6.00 Build 0)  -->
<svg version="1.1" id="Layer_1" xmlns="http://www.w3.org/2000/svg" xmlns:xlink="http://www.w3.org/1999/xlink" x="0px" y="0px"
	 viewBox="0 0 2500 2500" style="enable-background:new 0 0 2500 2500;" xml:space="preserve">
<style type="text/css">
	.st0{fill:#FACC15;}
	.st1{fill:#10B981;}
	.st2{fill:#010101;}
</style>
<path class="st0" d="M137,14.4c7.1-0.7,12,4.3,17,7.1c70.8,41.1,141,82.2,211.8,123.3c76.5,44.6,153,89.3,229.5,133.9
	c150.2,87.8,299.7,175.7,449.9,262.8c61.6,36.1,124.7,70.8,186.3,107.7c13.5,7.8,23.4,7.8,36.8,0c104.1-61.6,209-123.3,313.8-184.9
	c130.4-75.8,260.7-150.9,391.1-226.7c119-69.4,238-138.9,357.1-208.3c9.9-5.7,20.5-12,33.3-19.1c0.7,9.9,1.4,17,1.4,24.8
	c0,596.5,0,1192.3,0.7,1788.8c0,15.6-5,23.4-17.7,31.2c-361.3,209.7-721.9,420.1-1082.5,630.5c-12.8,7.8-21.3,5-31.9-1.4
	c-124.7-73-250.1-145.9-374.8-218.9C692.5,2168.1,526,2071,359.5,1974c-68.7-39.7-137.4-80.1-206.2-119.7c-12-7.1-17-14.9-17-29.8
	c0.7-174.3,0.7-347.8,0.7-522.1c0-422.2,0-844.5,0-1266.7C134.9,29.3,132.8,21.5,137,14.4z M2245.3,998.5c0-252.2,0-504.4,0-757.3
	c0-6.4,3.5-14.9-3.5-19.1c-2.8-2.1-10.6,2.1-14.9,5c-49.6,29-99.2,58.8-148.8,87.1c-120.4,70.1-242.3,138.1-362,209.7
	c-136.7,82.2-276.3,158-411.6,242.3c-40.4,25.5-69.4,26.2-110.5,0c-85.7-55.3-175.7-102.7-263.5-154.4
	c-133.2-76.5-265-154.4-398.1-231c-85-48.9-167.2-102-255-145.9c-8.5-4.3-14.9-17.7-24.1-12.8c-8.5,5,0.7,16.3,0.7,24.8
	c-0.7,84.3,0,169.3,0,253.6c0,418.7,0,837.4-0.7,1256.1c0,14.9,5.7,22.7,17.7,29c62.3,35.4,124,71.6,185.6,107.7
	c92.8,53.8,184.9,108.4,277.7,162.9c74.4,43.2,148.8,85.7,223.2,128.9c91.4,53.1,182.8,106.3,274.2,160.1
	c13.5,7.8,22.7,7.1,36.1-0.7c318.8-186.3,638.3-372.6,957.8-558.2c14.9-8.5,19.8-17.7,19.8-34.7
	C2244.6,1501.5,2245.3,1250,2245.3,998.5z"/>
<path class="st1" d="M2002.4,750.5c-49.6,29-98.5,58.1-148.8,85.7c-12.8,7.1-12,16.3-12,27.6c0,335.8,0,670.9,0.7,1006.7
	c0,17-5,25.5-19.8,34c-67.3,38.3-133.9,77.9-200.5,116.9c-5,2.8-9.9,8.5-18.4,7.1c0-347.1,0-694.3,0-1045.7
	c-54.5,31.9-106.3,61.6-158,92.1c22,7.8,42.5,5.7,63.1,3.5c29-2.1,29-2.8,29,25.5c0,201.9,0,403.8,0,606.4
	c0,114.8-0.7,229.5,0.7,344.3c0,15.6-5,23.4-18.4,30.5c-65.9,37.5-131.8,76.5-196.9,114.8c-6.4,3.5-13.5,7.1-22,12
	c-0.7-9.2-0.7-17-0.7-24.1c0-428.6,0-857.2,0-1285.8c0-12,2.1-19.8,14.2-26.9c274.9-159.4,549-318.8,823.2-478.9
	c2.1-1.4,5-2.8,7.1-3.5c6.4,3.5,3.5,9.2,3.5,13.5c0,432.1,0,864.3,0,1296.4c0,7.8,2.8,16.3-7.1,22
	c-75.8,43.9-151.6,87.8-230.2,133.9c0-50.3,0-97.1,0-144.5c0-271.3,0-542.7,0-814c0-12,2.8-21.3,10.6-30.5
	c29-38.3,58.1-76.5,87.1-115.5c1.4-1.4,3.5-2.8,2.8-3.5C2006.6,746.3,2004.5,749.1,2002.4,750.5z"/>
<path class="st1" d="M484.9,1278.3c31.9,36.1,63.8,71.6,96.3,107.7c5,5.7,9.9,10.6,9.9,19.8c0,149.5,0,299,0,448.4
	c-7.8,1.4-12-4.3-17.7-7.1c-68-39-135.3-78.6-202.6-117.6c-13.5-7.8-17.7-15.6-17.7-31.2c0.7-303.2,0.7-606.4,0.7-910.3
	c0-131.1,0-262.8,0-393.9c7.1-4.3,10.6,1.4,14.9,4.3c272.7,158.7,546.2,318.1,819,476.8c8.5,5,13.5,9.2,13.5,20.5
	c-0.7,187,0,374.8-0.7,561.8c0,2.1-0.7,4.3-1.4,7.1c-52.4-12.8-104.1-26.2-156.6-39c-0.7,1.4-0.7,2.8-1.4,4.3
	c48.9,39.7,98.5,80.1,147.4,119.7c7.8,6.4,12.8,12.8,12.8,24.1c-0.7,207.6,0,415.1-0.7,622.7c0,3.5,1.4,8.5-3.5,12.8
	c-6.4-3.5-12.8-6.4-19.1-10.6c-65.9-38.3-131.1-77.2-196.9-114.8c-14.2-7.8-19.1-16.3-19.1-32.6c0.7-161.5,0-323,0.7-484.6
	c0-14.9-4.3-23.4-17.7-31.2c-148.1-85-296.1-171.4-443.5-257.2c-4.3-2.1-8.5-4.3-12.8-6.4c-1.4-0.7-2.8-1.4-4.3-2.8
	c-2.1-2.1-3.5-3.5-5.7-0.7c0,0,2.1,2.1,2.8,3.5C482.1,1275.5,483.5,1276.9,484.9,1278.3z M469.3,742c0.7-1.4,5.7,0,3.5-3.5
	C471.4,739.2,470.7,740.6,469.3,742c5-0.7,6.4,4.3,9.9,5.7c32.6,35.4,64.5,71.6,97.1,107c9.9,10.6,14.9,21.3,14.9,36.8
	c-0.7,49.6,0,99.2-0.7,148.8c0,12,3.5,18.4,14.2,24.8c114.1,65.9,228.1,132.5,341.5,198.4c4.3,2.1,7.8,8.5,15.6,4.3
	c0-77.2,0-154.4,0-232.4c0-10.6-7.1-14.2-14.2-18.4c-79.3-46.8-158.7-93.5-238-140.3c-75.8-44.6-151.6-88.6-227.4-132.5
	C479.2,738.5,474.3,738.5,469.3,742z"/>
<path class="st2" d="M2002.4,750.5c2.1-0.7,4.3-3.5,5.7,0c0,0.7-2.1,2.1-2.8,3.5C2004.5,752.6,2003.1,751.2,2002.4,750.5z"/>
<path class="st2" d="M479.2,747c-3.5-1.4-5-6.4-9.2-5.7l0,0c5-3.5,9.2-3.5,12.8,2.1C481.3,744.8,479.9,746.3,479.2,747z"/>
<path class="st2" d="M484.9,1278.3c-1.4-1.4-2.8-2.8-4.3-4.3c0.7-0.7,2.1-2.1,2.8-2.8c1.4,0.7,2.8,1.4,4.3,2.8
	C487,1275.5,485.6,1276.9,484.9,1278.3z"/>
<path class="st2" d="M480.6,1274c-1.4-1.4-3.5-3.5-2.8-3.5c2.1-2.8,4.3-1.4,5.7,0.7C482.8,1271.9,482.1,1273.3,480.6,1274z"/>
<path class="st2" d="M469.3,742c0.7-1.4,2.1-2.8,2.8-3.5C475,742,470,739.9,469.3,742L469.3,742z"/>
</svg>
