<?xml version="1.0" encoding="utf-8"?>
<!-- Generator: Adobe Illustrator 25.2.1, SVG Export Plug-In . SVG Version: 6.00 Build 0)  -->
<svg version="1.1" id="Layer_1" xmlns="http://www.w3.org/2000/svg" xmlns:xlink="http://www.w3.org/1999/xlink" x="0px" y="0px"
	 viewBox="0 0 3077 351" style="enable-background:new 0 0 3077 351;" xml:space="preserve">
<style type="text/css">
	.st0{fill:#99F6E4;}
	.st1{fill:#FFFFFF;}
	.st2{fill:#FACC15;}
	.st3{fill:#FBFBFB;}
	.st4{fill:#010101;}
</style>
<g>
	<path class="st0" d="M341.6,77.9h79.6c39.9,0,94.4,9.9,94.4,61.7c0,20.9-9.9,35.9-24.4,46.1l44.2,86.3h-83.9l-29-63.8h-1.1V272
		h-79.9V77.9z M427.4,163.7c12.6,0,18.2-6.7,18.2-15c0-8.3-5.9-14.7-18.2-14.7h-5.9v29.8H427.4z"/>
	<path class="st0" d="M543.7,77.9h139.7v64.9h-59.8v10.5h48.3v46.1h-48.3v11h63.5V272H543.7V77.9z"/>
	<path class="st0" d="M770.8,77.9h76.4l74,194.1h-86.3l-6.7-25.5h-44.5l-7.5,25.5h-79.4L770.8,77.9z M815.3,197.8l-8.6-39.4h-0.5
		l-8.6,39.4H815.3z"/>
	<path class="st0" d="M934.6,272V77.9h81.2c37.5,0,66.5,11.5,86.1,30.3c17.2,16.4,28.2,38.6,28.2,66.8c0,26.8-10.2,49.9-27.6,66.5
		c-20.1,19.3-49.3,30.6-86.1,30.6H934.6z M1014.5,208.8h1.9c13.4,0,23.6-4.3,30-11c5.4-5.6,8.8-13.4,8.8-22.8
		c0-9.7-3.5-17.7-8.8-23.3c-5.6-5.9-14.7-10.5-29.5-10.5h-2.4V208.8z"/>
	<path class="st0" d="M1149.4,77.9h79.9V272h-79.9V77.9z"/>
	<path class="st0" d="M1252.8,77.9h72.7l57.1,82.8l0.5-0.3V77.9h71.9V272h-72.7l-57.1-82.8l-0.5,0.3V272h-71.9V77.9z"/>
	<path class="st0" d="M1473.8,176.6c0-58.4,48-101.6,115.8-101.6c25.7,0,49.3,6.2,64.6,13.9v66.5c-15.5-6.7-39.7-13.1-57.6-13.1
		c-28.4,0-43.2,16.1-43.2,37c0,22.8,18,36.5,37.5,36.5c3.8,0,6.4-0.5,8-1.1v-9.9h-19.3v-43.4h79.4v96c-14.2,8.8-39.4,17.7-71.3,17.7
		C1517.7,275,1473.8,232.4,1473.8,176.6z"/>
	<path class="st1" d="M1681.5,77.9h74.5l38.6,48.8l37.3-48.8h72.4V272h-79.9v-94.6h-0.5l-34.6,45.6l-35.4-45.6h-0.5V272h-71.9V77.9z
		"/>
	<path class="st1" d="M1991.7,77.9h76.4l74,194.1h-86.3l-6.7-25.5h-44.5l-7.5,25.5h-79.4L1991.7,77.9z M2036.2,197.8l-8.6-39.4h-0.5
		l-8.6,39.4H2036.2z"/>
	<path class="st1" d="M2151.8,193.2c26,16.9,52.3,23.1,63.8,23.1c8,0,9.9-3.2,9.9-6.4c0-3.8-2.4-5.4-5.9-6.2
		c-9.4-2.4-36.5-5.4-56.3-22.8c-10.2-9.1-17.2-21.7-17.2-40.5c0-38.9,30-65.4,79.1-65.4c23.6,0,51.5,6.2,69.2,15.3v63.5
		c-25.2-12.6-48.8-17.2-58.7-17.2c-7.8,0-9.9,2.9-9.9,5.9c0,4,2.9,5.6,6.2,6.7c8,2.4,34.9,5.6,53.9,20.6
		c13.1,10.7,19.6,24.4,19.6,41.8c0,37.3-30,63.3-81,63.3c-24.4,0-53.6-5.9-72.7-15.8V193.2z"/>
	<path class="st1" d="M2364.9,143.9h-54.2v-66H2499v66h-54.2V272h-79.9V143.9z"/>
	<path class="st1" d="M2519.9,77.9h139.7v64.9h-59.8v10.5h48.3v46.1h-48.3v11h63.5V272h-143.4V77.9z"/>
	<path class="st1" d="M2683.2,77.9h78.3c40.2,0,94.4,10.5,94.4,60.9c0,21.4-8.6,36.7-22.5,46.9c2.4,10.5,10.5,18.5,26.8,18.5
		c12.9,0,27.9-4.6,40.5-13.9v70.8c-11.8,7.8-31.4,13.9-51.5,13.9c-45.8,0-77.7-28.7-85.5-67.3h-0.5V272h-79.9V77.9z M2768.9,163.7
		c12.6,0,18.2-6.7,18.2-15c0-8.3-5.9-14.7-18.2-14.7h-5.9v29.8H2768.9z"/>
	<path class="st1" d="M2926,190l-71.3-112.1h90.1l22,44.2h0.5l22.3-44.2h87.1l-70.8,109.7V272H2926V190z"/>
</g>
<g>
	<path class="st2" d="M0.9,0.5c1-0.1,1.7,0.6,2.4,1c10,5.8,19.9,11.6,29.9,17.4C44,25.2,54.8,31.5,65.6,37.8
		c21.2,12.4,42.3,24.8,63.5,37.1c8.7,5.1,17.6,10,26.3,15.2c1.9,1.1,3.3,1.1,5.2,0c14.7-8.7,29.5-17.4,44.3-26.1
		c18.4-10.7,36.8-21.3,55.2-32c16.8-9.8,33.6-19.6,50.4-29.4c1.4-0.8,2.9-1.7,4.7-2.7c0.1,1.4,0.2,2.4,0.2,3.5
		c0,84.2,0,168.3,0.1,252.5c0,2.2-0.7,3.3-2.5,4.4c-51,29.6-101.9,59.3-152.8,89c-1.8,1.1-3,0.7-4.5-0.2
		c-17.6-10.3-35.3-20.6-52.9-30.9c-23.5-13.7-47-27.4-70.5-41.1c-9.7-5.6-19.4-11.3-29.1-16.9c-1.7-1-2.4-2.1-2.4-4.2
		c0.1-24.6,0.1-49.1,0.1-73.7c0-59.6,0-119.2,0-178.8C0.6,2.6,0.3,1.5,0.9,0.5z M298.5,139.4c0-35.6,0-71.2,0-106.9
		c0-0.9,0.5-2.1-0.5-2.7c-0.4-0.3-1.5,0.3-2.1,0.7c-7,4.1-14,8.3-21,12.3c-17,9.9-34.2,19.5-51.1,29.6c-19.3,11.6-39,22.3-58.1,34.2
		c-5.7,3.6-9.8,3.7-15.6,0c-12.1-7.8-24.8-14.5-37.2-21.8C94.1,74,75.5,63,56.7,52.2c-12-6.9-23.6-14.4-36-20.6
		c-1.2-0.6-2.1-2.5-3.4-1.8c-1.2,0.7,0.1,2.3,0.1,3.5c-0.1,11.9,0,23.9,0,35.8c0,59.1,0,118.2-0.1,177.3c0,2.1,0.8,3.2,2.5,4.1
		c8.8,5,17.5,10.1,26.2,15.2c13.1,7.6,26.1,15.3,39.2,23c10.5,6.1,21,12.1,31.5,18.2c12.9,7.5,25.8,15,38.7,22.6
		c1.9,1.1,3.2,1,5.1-0.1c45-26.3,90.1-52.6,135.2-78.8c2.1-1.2,2.8-2.5,2.8-4.9C298.4,210.4,298.5,174.9,298.5,139.4z"/>
	<path class="st3" d="M264.2,104.4c-7,4.1-13.9,8.2-21,12.1c-1.8,1-1.7,2.3-1.7,3.9c0,47.4,0,94.7,0.1,142.1c0,2.4-0.7,3.6-2.8,4.8
		c-9.5,5.4-18.9,11-28.3,16.5c-0.7,0.4-1.4,1.2-2.6,1c0-49,0-98,0-147.6c-7.7,4.5-15,8.7-22.3,13c3.1,1.1,6,0.8,8.9,0.5
		c4.1-0.3,4.1-0.4,4.1,3.6c0,28.5,0,57,0,85.6c0,16.2-0.1,32.4,0.1,48.6c0,2.2-0.7,3.3-2.6,4.3c-9.3,5.3-18.6,10.8-27.8,16.2
		c-0.9,0.5-1.9,1-3.1,1.7c-0.1-1.3-0.1-2.4-0.1-3.4c0-60.5,0-121,0-181.5c0-1.7,0.3-2.8,2-3.8c38.8-22.5,77.5-45,116.2-67.6
		c0.3-0.2,0.7-0.4,1-0.5c0.9,0.5,0.5,1.3,0.5,1.9c0,61,0,122,0,183c0,1.1,0.4,2.3-1,3.1c-10.7,6.2-21.4,12.4-32.5,18.9
		c0-7.1,0-13.7,0-20.4c0-38.3,0-76.6,0-114.9c0-1.7,0.4-3,1.5-4.3c4.1-5.4,8.2-10.8,12.3-16.3c0.2-0.2,0.5-0.4,0.4-0.5
		C264.8,103.8,264.5,104.2,264.2,104.4z"/>
	<path class="st3" d="M50,178.9c4.5,5.1,9,10.1,13.6,15.2c0.7,0.8,1.4,1.5,1.4,2.8c0,21.1,0,42.2,0,63.3c-1.1,0.2-1.7-0.6-2.5-1
		c-9.6-5.5-19.1-11.1-28.6-16.6c-1.9-1.1-2.5-2.2-2.5-4.4c0.1-42.8,0.1-85.6,0.1-128.5c0-18.5,0-37.1,0-55.6c1-0.6,1.5,0.2,2.1,0.6
		c38.5,22.4,77.1,44.9,115.6,67.3c1.2,0.7,1.9,1.3,1.9,2.9c-0.1,26.4,0,52.9-0.1,79.3c0,0.3-0.1,0.6-0.2,1
		c-7.4-1.8-14.7-3.7-22.1-5.5c-0.1,0.2-0.1,0.4-0.2,0.6c6.9,5.6,13.9,11.3,20.8,16.9c1.1,0.9,1.8,1.8,1.8,3.4
		c-0.1,29.3,0,58.6-0.1,87.9c0,0.5,0.2,1.2-0.5,1.8c-0.9-0.5-1.8-0.9-2.7-1.5c-9.3-5.4-18.5-10.9-27.8-16.2c-2-1.1-2.7-2.3-2.7-4.6
		c0.1-22.8,0-45.6,0.1-68.4c0-2.1-0.6-3.3-2.5-4.4c-20.9-12-41.8-24.2-62.6-36.3c-0.6-0.3-1.2-0.6-1.8-0.9c-0.2-0.1-0.4-0.2-0.6-0.4
		c-0.3-0.3-0.5-0.5-0.8-0.1c0,0,0.3,0.3,0.4,0.5C49.6,178.5,49.8,178.7,50,178.9z M47.8,103.2c0.1-0.2,0.8,0,0.5-0.5
		C48.1,102.8,48,103,47.8,103.2c0.7-0.1,0.9,0.6,1.4,0.8c4.6,5,9.1,10.1,13.7,15.1c1.4,1.5,2.1,3,2.1,5.2c-0.1,7,0,14-0.1,21
		c0,1.7,0.5,2.6,2,3.5c16.1,9.3,32.2,18.7,48.2,28c0.6,0.3,1.1,1.2,2.2,0.6c0-10.9,0-21.8,0-32.8c0-1.5-1-2-2-2.6
		c-11.2-6.6-22.4-13.2-33.6-19.8c-10.7-6.3-21.4-12.5-32.1-18.7C49.2,102.7,48.5,102.7,47.8,103.2z"/>
	<path class="st4" d="M264.2,104.4c0.3-0.1,0.6-0.5,0.8,0c0,0.1-0.3,0.3-0.4,0.5C264.5,104.7,264.3,104.5,264.2,104.4z"/>
	<path class="st4" d="M49.2,103.9c-0.5-0.2-0.7-0.9-1.3-0.8l0,0c0.7-0.5,1.3-0.5,1.8,0.3C49.5,103.6,49.3,103.8,49.2,103.9z"/>
	<path class="st4" d="M50,178.9c-0.2-0.2-0.4-0.4-0.6-0.6c0.1-0.1,0.3-0.3,0.4-0.4c0.2,0.1,0.4,0.2,0.6,0.4
		C50.3,178.5,50.1,178.7,50,178.9z"/>
	<path class="st4" d="M49.4,178.3c-0.2-0.2-0.5-0.5-0.4-0.5c0.3-0.4,0.6-0.2,0.8,0.1C49.7,178,49.6,178.2,49.4,178.3z"/>
	<path class="st4" d="M47.8,103.2c0.1-0.2,0.3-0.4,0.4-0.5C48.6,103.2,47.9,102.9,47.8,103.2C47.8,103.2,47.8,103.2,47.8,103.2z"/>
</g>
</svg>
